:version 1.10
:name ASF
:units
  mass 1
  length 1
  angle deg
:documentation
  ASF file generated by Kaydara
:root
  axis xyz
  order  tx ty tz rx ry rz
  position 0 0 0
  orientation 0 0 0
:bonedata
  begin
    id 1
    name LeftUpLegDummy
    direction 1 -2.30186e-007 -8.31532e-007
    length 2.93387
    axis 0 0 0 xyz
  end
  begin
    id 2
    name LeftUpLeg
    direction -1.82929e-007 -1 -1.48925e-009
    length 17.3336
    axis -3.48766 0.00143442 -0.000521554 xyz
    dof rx ry rz
  end
  begin
    id 3
    name LeftLeg
    direction -1.82929e-007 -1 -5.23717e-011
    length 14.9995
    axis 3.68178 -0.00654042 -0.000282425 xyz
    dof rx ry rz
  end
  begin
    id 4
    name LeftFoot
    direction 8.31532e-007 -4.54534e-011 1
    length 6.74421
    axis 1.87234e-006 4.66016e-005 -5.96866e-006 xyz
    dof rx ry rz
  end
  begin
    id 5
    name LeftToes
    direction 0.00818058 -0.00485161 0.999955
    length 3.85048
    axis 1.06247e-005 4.65869e-005 -5.96999e-006 xyz
    dof rx ry rz
  end
  begin
    id 6
    name SpineDummy
    direction -5.8607e-008 0.943407 -0.331637
    length 5.93572
    axis 0 0 0 xyz
  end
  begin
    id 7
    name Spine
    direction -1.04988e-007 0.999988 0.00495137
    length 10.1015
    axis -0.001389 0.000121417 6.61666e-006 xyz
    dof rx ry rz
  end
  begin
    id 8
    name Spine1
    direction 0 0 0
    length 0
    axis -0.001389 0.00012144 6.56766e-006 xyz
    dof rx ry rz
  end
  begin
    id 9
    name RightShoulderDummy
    direction -0.98348 0.17941 -0.0240696
    length 3.59882
    axis -0.001389 0.00012144 6.56766e-006 xyz
  end
  begin
    id 10
    name RightShoulder
    direction -0.978693 0.204882 0.0135597
    length 2.70001
    axis 0.215806 0.000203631 -0.00679732 xyz
    dof rx ry rz
  end
  begin
    id 11
    name RightArm
    direction -1 3.85509e-006 8.31394e-007
    length 10.2459
    axis -23.2009 -0.134239 -0.964098 xyz
    dof rx ry rz
  end
  begin
    id 12
    name RightForeArm
    direction -1 3.85569e-006 8.3129e-007
    length 8.16799
    axis -9.92322 0.0658061 0.17887 xyz
    dof rx ry rz
  end
  begin
    id 13
    name RightHand
    direction -0.992843 -0.0414604 0.112003
    length 5.28593
    axis -0.00960638 0.00330669 -0.185225 xyz
    dof rx ry rz
  end
  begin
    id 14
    name LeftShoulder1Dummy
    direction 0.983523 0.179172 -0.0240748
    length 3.59866
    axis -0.001389 0.00012144 6.56766e-006 xyz
  end
  begin
    id 15
    name LeftShoulder1
    direction 0.978627 0.205195 0.0135605
    length 2.70019
    axis -0.001389 0.00012144 6.57583e-006 xyz
    dof rx ry rz
  end
  begin
    id 16
    name LeftArm
    direction 1 3.51895e-006 -8.60188e-007
    length 10.2459
    axis -23.1894 0.134785 0.967513 xyz
    dof rx ry rz
  end
  begin
    id 17
    name LeftForeArm
    direction 1 3.51921e-006 -7.32029e-007
    length 8.16799
    axis -9.91835 -0.0656957 -0.177789 xyz
    dof rx ry rz
  end
  begin
    id 18
    name LeftHand
    direction 0.992938 -0.0411636 0.11126
    length 5.32135
    axis -0.00960237 -0.00340661 0.185177 xyz
    dof rx ry rz
  end
  begin
    id 19
    name HEadDummy
    direction 1.01974e-006 0.999861 -0.016675
    length 2.99946
    axis -0.001389 0.00012144 6.56766e-006 xyz
  end
  begin
    id 20
    name HEad
    direction -0.0222689 0.980941 0.193023
    length 5.12695
    axis -0.001389 0.00012144 6.56766e-006 xyz
    dof rx ry rz
  end
  begin
    id 21
    name RightUpLegDummy
    direction -1 2.30186e-007 8.31532e-007
    length 2.93387
    axis 0 0 0 xyz
  end
  begin
    id 22
    name RightUpLeg
    direction -1.82966e-007 -1 1.56832e-007
    length 17.3336
    axis -3.4909 -0.000906625 0.00028951 xyz
    dof rx ry rz
  end
  begin
    id 23
    name RightLeg
    direction -1.82786e-007 -1 -1.80317e-007
    length 14.9995
    axis 3.68513 0.0193739 -0.131021 xyz
    dof rx ry rz
  end
  begin
    id 24
    name RightFoot
    direction 8.31721e-007 -4.63324e-011 1
    length 6.74421
    axis 4.81691e-005 -0.120479 -0.188785 xyz
    dof rx ry rz
  end
  begin
    id 25
    name RightToes
    direction 0.00124746 -0.014064 0.9999
    length 3.85082
    axis 0.000481921 0.542163 -0.142575 xyz
    dof rx ry rz
  end
:hierarchy
  begin
    root LeftUpLegDummy SpineDummy RightUpLegDummy
    LeftUpLegDummy LeftUpLeg
    LeftUpLeg LeftLeg
    LeftLeg LeftFoot
    LeftFoot LeftToes
    SpineDummy Spine
    Spine Spine1
    Spine1 RightShoulderDummy LeftShoulder1Dummy HEadDummy
    RightShoulderDummy RightShoulder
    RightShoulder RightArm
    RightArm RightForeArm
    RightForeArm RightHand
    LeftShoulder1Dummy LeftShoulder1
    LeftShoulder1 LeftArm
    LeftArm LeftForeArm
    LeftForeArm LeftHand
    HEadDummy HEad
    RightUpLegDummy RightUpLeg
    RightUpLeg RightLeg
    RightLeg RightFoot
    RightFoot RightToes
  end

:SAMPLES-PER-SECOND 30
:FULLY-SPECIFIED
:DEGREES
131
root  7.20869 32.902 -8.07046 -4.0946 -42.7572 7.88539
LeftUpLeg  -8.09005 12.6348 -7.29985
LeftLeg  33.0835 7.60925 4.26326
LeftFoot  -17.0538 -0.429335 -2.86298
LeftToes  -3.09202 1.85109e-006 5.31342e-008
Spine  5.09447 -5.59615 9.52699
Spine1  9.40379 -11.5171 15.6054
RightShoulder  0.334769 7.73011 13.8209
RightArm  -43.0331 17.1616 34.9305
RightForeArm  40.7077 14.7968 2.6552
RightHand  1.39105 -13.602 -11.2492
LeftShoulder1  0.0674062 -5.90035 1.85941
LeftArm  32.8528 -36.5256 -103.172
LeftForeArm  119.558 -59.2257 -162.495
LeftHand  0.654963 11.5862 6.07545
HEad  -6.27853 -44.3869 16.0648
RightUpLeg  -22.181 1.59462 -12.1551
RightLeg  13.7384 21.5295 3.73293
RightFoot  14.4591 -0.658251 5.56285
RightToes  -42.5016 -0.238769 -0.323286
132
root  7.31946 32.9021 -8.31105 -4.80736 -41.303 7.94381
LeftUpLeg  -8.01135 12.3047 -7.14352
LeftLeg  33.4456 6.73432 3.83233
LeftFoot  -16.6921 -0.369497 -2.51824
LeftToes  -3.29484 1.85109e-006 5.31342e-008
Spine  5.09237 -5.4544 9.00057
Spine1  9.41356 -11.1737 14.7134
RightShoulder  0.306033 7.523 13.7233
RightArm  -43.8737 16.7825 34.047
RightForeArm  39.1802 15.9656 2.87838
RightHand  1.50869 -13.7963 -12.0468
LeftShoulder1  0.0656082 -5.85031 1.81884
LeftArm  32.4545 -36.5852 -102.481
LeftForeArm  120.04 -58.7817 -162.804
LeftHand  0.723755 11.7465 6.65317
HEad  -6.34308 -43.9522 15.9299
RightUpLeg  -21.297 1.91707 -12.5676
RightLeg  13.0702 20.0184 3.24759
RightFoot  15.1379 -0.662476 5.35986
RightToes  -43.121 -0.240534 -0.322322
133
root  7.4314 32.8853 -8.5867 -5.43051 -40.3073 8.03654
LeftUpLeg  -8.17785 12.1181 -7.02556
LeftLeg  33.9669 6.13054 3.56453
LeftFoot  -16.3839 -0.327743 -2.27636
LeftToes  -3.78491 1.85109e-006 5.31342e-008
Spine  5.14322 -5.22641 8.49149
Spine1  9.51414 -10.7 13.9244
RightShoulder  0.278414 7.19508 13.4687
RightArm  -44.3067 16.2771 33.7969
RightForeArm  37.4462 16.8275 3.04523
RightHand  1.62989 -13.8743 -12.9602
LeftShoulder1  0.0639162 -5.82072 1.60344
LeftArm  31.756 -36.7788 -101.725
LeftForeArm  120.661 -58.4323 -163.039
LeftHand  0.725502 11.6927 6.70265
HEad  -6.79498 -43.5184 15.8332
RightUpLeg  -20.8149 1.84725 -12.7596
RightLeg  12.7146 19.3036 3.01582
RightFoot  15.7009 -0.684278 5.33711
RightToes  -43.2073 -0.241552 -0.321431
134
root  7.55473 32.8364 -8.90154 -6.21629 -39.8858 8.2921
LeftUpLeg  -8.51138 12.1844 -6.99555
LeftLeg  34.8018 5.75991 3.46284
LeftFoot  -16.2506 -0.306123 -2.14391
LeftToes  -4.05482 1.85109e-006 5.31342e-008
Spine  5.28479 -4.97978 7.88977
Spine1  9.7857 -10.1896 12.9012
RightShoulder  0.264851 7.12546 13.498
RightArm  -44.3417 15.6141 34.2254
RightForeArm  36.1266 17.3811 3.15334
RightHand  1.74331 -14.0117 -13.7392
LeftShoulder1  0.0623443 -5.58716 1.35719
LeftArm  30.6603 -36.8444 -100.766
LeftForeArm  121.107 -58.0762 -163.275
LeftHand  0.720369 11.7387 6.62506
HEad  -7.03574 -42.6544 15.4723
RightUpLeg  -20.7157 1.73329 -12.8705
RightLeg  12.798 19.214 3.03043
RightFoot  16.1717 -0.724527 5.47385
RightToes  -43.2457 -0.241843 -0.321071
135
root  7.69347 32.7652 -9.27089 -7.09798 -40.0513 8.7204
LeftUpLeg  -9.01774 12.514 -7.04785
LeftLeg  35.7649 5.67321 3.54156
LeftFoot  -16.2409 -0.302859 -2.12234
LeftToes  -4.40083 1.85109e-006 5.31342e-008
Spine  5.54279 -4.68712 7.22583
Spine1  10.2823 -9.59321 11.7334
RightShoulder  0.2591 7.06088 13.4985
RightArm  -44.356 15.0808 35.6417
RightForeArm  35.3865 17.6185 3.20005
RightHand  1.79169 -14.0381 -14.0994
LeftShoulder1  0.0609069 -5.27073 1.14756
LeftArm  29.4347 -37.1062 -99.5975
LeftForeArm  121.394 -57.6606 -163.546
LeftHand  0.727302 11.789 6.66199
HEad  -7.36513 -41.5497 15.1898
RightUpLeg  -20.9943 1.61022 -12.8538
RightLeg  13.0794 19.6465 3.19281
RightFoot  16.7247 -0.799287 5.81081
RightToes  -43.0846 -0.241428 -0.3217
136
root  7.85474 32.6623 -9.71051 -7.95697 -40.7548 9.21765
LeftUpLeg  -9.84984 13.233 -7.05564
LeftLeg  36.9861 5.69679 3.72648
LeftFoot  -16.4813 -0.31482 -2.17353
LeftToes  -4.52848 1.85109e-006 5.31342e-008
Spine  5.90582 -4.4147 6.53028
Spine1  10.9675 -9.05364 10.511
RightShoulder  0.260615 7.09377 13.2733
RightArm  -43.7641 14.5555 38.1578
RightForeArm  34.4481 17.7321 3.22292
RightHand  1.84957 -14.2812 -14.3079
LeftShoulder1  0.0596182 -4.99352 0.931728
LeftArm  27.7952 -37.7344 -98.1422
LeftForeArm  121.838 -57.2762 -163.789
LeftHand  0.738812 11.8406 6.74172
HEad  -7.66208 -40.1629 14.8718
RightUpLeg  -21.5705 1.90132 -12.7081
RightLeg  13.2183 20.1765 3.32449
RightFoot  17.5018 -0.907183 6.26566
RightToes  -42.6906 -0.240326 -0.323776
137
root  8.02266 32.5479 -10.2145 -8.84264 -41.9869 9.94038
LeftUpLeg  -10.7512 14.6373 -7.02862
LeftLeg  37.9238 5.64564 3.82596
LeftFoot  -16.9147 -0.329654 -2.21679
LeftToes  -4.77327 1.85109e-006 5.31342e-008
Spine  6.32787 -4.17643 5.7386
Spine1  11.7712 -8.57033 9.09092
RightShoulder  0.265397 7.22861 13.2894
RightArm  -42.5924 14.2371 41.4112
RightForeArm  33.6866 17.5716 3.19239
RightHand  1.87274 -14.5009 -14.2649
LeftShoulder1  0.0584925 -4.72338 0.766175
LeftArm  25.6156 -38.5303 -96.3464
LeftForeArm  122.031 -57.0138 -163.953
LeftHand  0.742391 11.8349 6.77959
HEad  -7.97852 -38.2746 14.6375
RightUpLeg  -22.4668 2.42028 -12.4552
RightLeg  13.2516 20.9182 3.45352
RightFoot  18.4107 -1.05208 6.86242
RightToes  -42.3029 -0.237136 -0.327758
138
root  8.19889 32.4693 -10.7546 -10.0738 -43.7924 11.6039
LeftUpLeg  -11.6817 16.4921 -7.57362
LeftLeg  38.2633 6.5287 4.47686
LeftFoot  -17.6014 -0.403991 -2.60898
LeftToes  -4.85008 1.85109e-006 5.31342e-008
Spine  6.70219 -3.97207 4.66026
Spine1  12.5377 -8.10121 7.14427
RightShoulder  0.269425 7.52041 13.4747
RightArm  -41.4748 14.0184 45.4899
RightForeArm  33.7108 17.0235 3.08639
RightHand  1.74356 -14.2169 -13.5376
LeftShoulder1  0.0575442 -4.39173 0.410013
LeftArm  23.1013 -39.385 -93.585
LeftForeArm  122.84 -56.3823 -164.335
LeftHand  0.773888 11.7968 7.1062
HEad  -8.42793 -35.8457 14.5989
RightUpLeg  -24.0246 2.33724 -12.3765
RightLeg  13.6501 22.1722 3.80461
RightFoot  18.3464 -1.12384 7.32836
RightToes  -44.1636 -0.252569 -0.337414
139
root  8.36501 32.4575 -11.3119 -11.4798 -45.8146 13.6815
LeftUpLeg  -12.4321 18.2737 -8.34179
LeftLeg  37.8215 7.39091 4.9801
LeftFoot  -18.5369 -0.494458 -3.02926
LeftToes  -6.42908 1.85109e-006 5.31342e-008
Spine  7.05623 -3.89209 3.57215
Spine1  13.283 -7.8848 5.19839
RightShoulder  0.27178 7.8895 13.3467
RightArm  -42.0305 13.4346 50.4228
RightForeArm  35.1881 16.6036 3.00438
RightHand  1.47991 -13.7862 -11.8206
LeftShoulder1  0.0567874 -3.92957 -0.0799028
LeftArm  19.8375 -40.198 -90.3286
LeftForeArm  123.827 -55.5717 -164.806
LeftHand  0.769227 11.776 7.07447
HEad  -8.95081 -33.2786 14.2807
RightUpLeg  -26.0261 0.457364 -11.8106
RightLeg  14.7953 23.0055 4.40046
RightFoot  16.5023 -0.950283 6.92333
RightToes  -44.0517 -0.251632 -0.336847
140
root  8.48767 32.5166 -11.8647 -12.7343 -47.4652 15.3368
LeftUpLeg  -12.8279 18.9116 -8.85509
LeftLeg  36.9183 8.40421 5.46609
LeftFoot  -19.3629 -0.598972 -3.50991
LeftToes  -7.18377 1.85109e-006 5.31342e-008
Spine  7.43994 -3.99884 2.72132
Spine1  14.0682 -8.10434 3.72028
RightShoulder  0.273434 7.98562 13.2069
RightArm  -43.3449 12.1055 55.4543
RightForeArm  35.3154 16.7492 3.03222
RightHand  1.3049 -13.9665 -10.2485
LeftShoulder1  0.0562364 -3.18863 -0.614606
LeftArm  16.4272 -40.928 -87.6405
LeftForeArm  124.44 -54.9368 -165.162
LeftHand  0.804179 12.0927 7.20718
HEad  -9.48312 -30.912 13.5778
RightUpLeg  -27.7451 -2.32782 -10.7215
RightLeg  16.0832 20.321 4.37473
RightFoot  13.2932 -0.524714 4.87789
RightToes  -39.6571 -0.215749 -0.313177
